HIERARCHY
ROOT hip
{
	OFFSET 0.000000 0.000000 0.000000
	CHANNELS 6 Xposition Yposition Zposition Xrotation Zrotation Yrotation
	JOINT abdomen
	{
		OFFSET 0.000000 0.000000 3.402643
		CHANNELS 6 Xposition Yposition Zposition Xrotation Zrotation Yrotation
		JOINT chest
		{
			OFFSET 0.000000 0.680530 8.438564
			CHANNELS 6 Xposition Yposition Zposition Xrotation Zrotation Yrotation
			JOINT neck
			{
				OFFSET 0.000000 0.272213 10.207941
				CHANNELS 6 Xposition Yposition Zposition Xrotation Zrotation Yrotation
				JOINT head
				{
					OFFSET 0.000000 0.000000 3.130430
					CHANNELS 6 Xposition Yposition Zposition Xrotation Zrotation Yrotation
					End Site
					{
						OFFSET 0.000000 0.000000 3.130434
					}
				}
			}
			JOINT lCollar
			{
				OFFSET 3.402647 0.816636 6.669188
				CHANNELS 6 Xposition Yposition Zposition Yrotation Zrotation Xrotation
				JOINT lShldr
				{
					OFFSET 3.266541 0.000000 0.000000
					CHANNELS 6 Xposition Yposition Zposition Zrotation Yrotation Xrotation
					JOINT lForeArm
					{
						OFFSET 10.071835 0.000000 0.000000
						CHANNELS 6 Xposition Yposition Zposition Yrotation Zrotation Xrotation
						JOINT lHand
						{
							OFFSET 8.438562 0.000000 0.000000
							CHANNELS 6 Xposition Yposition Zposition Zrotation Yrotation Xrotation
							JOINT mHandMiddle1Left
							{
								OFFSET 3.976400 -0.511800 0.590500
								CHANNELS 6 Xposition Yposition Zposition Xrotation Yrotation Zrotation
								JOINT mHandMiddle2Left
								{
									OFFSET 1.574800 0.039400 -0.236200
									CHANNELS 6 Xposition Yposition Zposition Xrotation Yrotation Zrotation
									JOINT mHandMiddle3Left
									{
										OFFSET 1.929100 0.039400 -0.315001
										CHANNELS 6 Xposition Yposition Zposition Xrotation Yrotation Zrotation
										End Site
										{
											OFFSET 1.299198 0.078700 -0.236200
										}
									}
								}
							}
							JOINT mHandIndex1Left
							{
								OFFSET 3.818901 -1.496100 0.590500
								CHANNELS 6 Xposition Yposition Zposition Xrotation Yrotation Zrotation
								JOINT mHandIndex2Left
								{
									OFFSET 1.417299 -0.669300 -0.236200
									CHANNELS 6 Xposition Yposition Zposition Xrotation Yrotation Zrotation
									JOINT mHandIndex3Left
									{
										OFFSET 1.259800 -0.551200 -0.236200
										CHANNELS 6 Xposition Yposition Zposition Xrotation Yrotation Zrotation
										End Site
										{
											OFFSET 0.984301 -0.433100 -0.157499
										}
									}
								}
							}
							JOINT mHandRing1Left
							{
								OFFSET 3.897600 0.393700 0.354300
								CHANNELS 6 Xposition Yposition Zposition Xrotation Yrotation Zrotation
								JOINT mHandRing2Left
								{
									OFFSET 1.496099 0.511800 -0.315001
									CHANNELS 6 Xposition Yposition Zposition Xrotation Yrotation Zrotation
									JOINT mHandRing3Left
									{
										OFFSET 1.574799 0.511800 -0.354300
										CHANNELS 6 Xposition Yposition Zposition Xrotation Yrotation Zrotation
										End Site
										{
											OFFSET 1.102402 0.393700 -0.236200
										}
									}
								}
							}
							JOINT mHandPinky1Left
							{
								OFFSET 3.740200 1.220500 0.118099
								CHANNELS 6 Xposition Yposition Zposition Xrotation Yrotation Zrotation
								JOINT mHandPinky2Left
								{
									OFFSET 0.984200 0.944900 -0.236200
									CHANNELS 6 Xposition Yposition Zposition Xrotation Yrotation Zrotation
									JOINT mHandPinky3Left
									{
										OFFSET 0.708700 0.590600 -0.157499
										CHANNELS 6 Xposition Yposition Zposition Xrotation Yrotation Zrotation
										End Site
										{
											OFFSET 0.629900 0.511800 -0.157499
										}
									}
								}
							}
							JOINT mHandThumb1Left
							{
								OFFSET 1.023600 -1.220500 0.157499
								CHANNELS 6 Xposition Yposition Zposition Xrotation Yrotation Zrotation
								JOINT mHandThumb2Left
								{
									OFFSET 1.259800 -1.102400 -0.039400
									CHANNELS 6 Xposition Yposition Zposition Xrotation Yrotation Zrotation
									JOINT mHandThumb3Left
									{
										OFFSET 1.220499 -0.905500 -0.039400
										CHANNELS 6 Xposition Yposition Zposition Xrotation Yrotation Zrotation
										End Site
										{
											OFFSET 0.984301 -0.590600 0.000000
										}
									}
								}
							}
						}
					}
				}
			}
			JOINT rCollar
			{
				OFFSET -3.538753 0.816636 6.669188
				CHANNELS 6 Xposition Yposition Zposition Yrotation Zrotation Xrotation
				JOINT rShldr
				{
					OFFSET -3.130435 0.000000 0.000000
					CHANNELS 6 Xposition Yposition Zposition Zrotation Yrotation Xrotation
					JOINT rForeArm
					{
						OFFSET -10.207941 0.000000 0.000000
						CHANNELS 6 Xposition Yposition Zposition Yrotation Zrotation Xrotation
						JOINT rHand
						{
							OFFSET -8.302460 0.000000 0.000000
							CHANNELS 6 Xposition Yposition Zposition Zrotation Yrotation Xrotation
							JOINT mHandMiddle1Right
							{
								OFFSET -3.976400 -0.511800 0.590500
								CHANNELS 6 Xposition Yposition Zposition Xrotation Yrotation Zrotation
								JOINT mHandMiddle2Right
								{
									OFFSET -1.574800 0.039400 -0.236200
									CHANNELS 6 Xposition Yposition Zposition Xrotation Yrotation Zrotation
									JOINT mHandMiddle3Right
									{
										OFFSET -1.929100 0.039400 -0.315001
										CHANNELS 6 Xposition Yposition Zposition Xrotation Yrotation Zrotation
										End Site
										{
											OFFSET -1.299202 0.078700 -0.236200
										}
									}
								}
							}
							JOINT mHandIndex1Right
							{
								OFFSET -3.818901 -1.496100 0.590500
								CHANNELS 6 Xposition Yposition Zposition Xrotation Yrotation Zrotation
								JOINT mHandIndex2Right
								{
									OFFSET -1.417299 -0.669300 -0.236200
									CHANNELS 6 Xposition Yposition Zposition Xrotation Yrotation Zrotation
									JOINT mHandIndex3Right
									{
										OFFSET -1.259800 -0.551200 -0.236200
										CHANNELS 6 Xposition Yposition Zposition Xrotation Yrotation Zrotation
										End Site
										{
											OFFSET -0.984301 -0.433100 -0.157499
										}
									}
								}
							}
							JOINT mHandRing1Right
							{
								OFFSET -3.897600 0.393700 0.354300
								CHANNELS 6 Xposition Yposition Zposition Xrotation Yrotation Zrotation
								JOINT mHandRing2Right
								{
									OFFSET -1.496099 0.511800 -0.315001
									CHANNELS 6 Xposition Yposition Zposition Xrotation Yrotation Zrotation
									JOINT mHandRing3Right
									{
										OFFSET -1.574799 0.511800 -0.354300
										CHANNELS 6 Xposition Yposition Zposition Xrotation Yrotation Zrotation
										End Site
										{
											OFFSET -1.102402 0.393700 -0.236200
										}
									}
								}
							}
							JOINT mHandPinky1Right
							{
								OFFSET -3.740101 1.220500 0.118099
								CHANNELS 6 Xposition Yposition Zposition Xrotation Yrotation Zrotation
								JOINT mHandPinky2Right
								{
									OFFSET -0.984200 0.944900 -0.236200
									CHANNELS 6 Xposition Yposition Zposition Xrotation Yrotation Zrotation
									JOINT mHandPinky3Right
									{
										OFFSET -0.708700 0.590600 -0.157499
										CHANNELS 6 Xposition Yposition Zposition Xrotation Yrotation Zrotation
										End Site
										{
											OFFSET -0.629900 0.511800 -0.157499
										}
									}
								}
							}
							JOINT mHandThumb1Right
							{
								OFFSET -1.023600 -1.220500 0.157499
								CHANNELS 6 Xposition Yposition Zposition Xrotation Yrotation Zrotation
								JOINT mHandThumb2Right
								{
									OFFSET -1.259800 -1.102400 -0.039400
									CHANNELS 6 Xposition Yposition Zposition Xrotation Yrotation Zrotation
									JOINT mHandThumb3Right
									{
										OFFSET -1.220499 -0.905500 -0.039400
										CHANNELS 6 Xposition Yposition Zposition Xrotation Yrotation Zrotation
										End Site
										{
											OFFSET -0.984301 -0.590600 0.000000
										}
									}
								}
							}
						}
					}
				}
			}
		}
	}
	JOINT lThigh
	{
		OFFSET 5.308129 -1.361059 -1.633274
		CHANNELS 6 Xposition Yposition Zposition Xrotation Zrotation Yrotation
		JOINT lShin
		{
			OFFSET -2.041588 -0.000002 -20.007561
			CHANNELS 6 Xposition Yposition Zposition Xrotation Zrotation Yrotation
			JOINT lFoot
			{
				OFFSET 0.000000 1.224952 -19.190929
				CHANNELS 6 Xposition Yposition Zposition Xrotation Yrotation Zrotation
				End Site
				{
					OFFSET 0.000000 -4.627601 -2.449905
				}
			}
		}
	}
	JOINT rThigh
	{
		OFFSET -5.308129 -1.361059 -1.633274
		CHANNELS 6 Xposition Yposition Zposition Xrotation Zrotation Yrotation
		JOINT rShin
		{
			OFFSET 2.041588 -0.000002 -20.007561
			CHANNELS 6 Xposition Yposition Zposition Xrotation Zrotation Yrotation
			JOINT rFoot
			{
				OFFSET 0.000000 1.224952 -19.190929
				CHANNELS 6 Xposition Yposition Zposition Xrotation Yrotation Zrotation
				End Site
				{
					OFFSET 0.000000 -4.627601 -2.449905
				}
			}
		}
	}
}
MOTION
Frames: 4
Frame Time: 0.041667
0.000000 0.000001 23.228386 0.000000 -0.000000 0.000000 0.000000 0.000000 3.402643 0.000000 -0.000000 0.000000 -0.000000 0.680530 8.438563 0.000001 0.000000 -0.000000 0.000000 0.272212 10.207937 0.000000 0.000000 -0.000000 -0.000000 0.000000 3.130432 0.000000 0.000000 -0.000000 3.402647 0.816635 6.669188 0.000000 -0.000000 0.000000 3.266541 -0.000000 0.000000 -0.000000 -0.000000 0.000000 10.071835 0.000000 0.000000 -0.000000 0.000000 -0.000000 8.438562 0.000000 0.000002 0.000000 -0.000000 -0.000001 3.976400 -0.511799 0.590494 -0.000001 -0.000001 0.000000 1.574798 0.039400 -0.236200 0.000000 -0.000001 -0.000000 1.929096 0.039400 -0.315004 -0.000000 0.000000 -0.000000 3.818899 -1.496098 0.590497 0.000000 -0.000000 -0.000002 1.417303 -0.669305 -0.236194 0.000001 0.000001 0.000002 1.259802 -0.551201 -0.236203 0.000001 -0.000000 0.000000 3.897602 0.393702 0.354296 0.000001 -0.000001 -0.000001 1.496109 0.511805 -0.314997 -0.000000 0.000000 0.000001 1.574798 0.511801 -0.354297 0.000002 -0.000000 0.000003 3.740200 1.220501 0.118096 -0.000001 -0.000006 0.000003 0.984201 0.944897 -0.236201 -0.000003 0.000000 0.000002 0.708693 0.590599 -0.157499 -0.000000 -0.000005 0.000001 1.023597 -1.220500 0.157495 -0.000000 -0.000001 -0.000000 1.259800 -1.102397 -0.039397 0.000002 -0.000001 -0.000002 1.220502 -0.905508 -0.039396 0.000001 -0.000002 -0.000001 -3.538753 0.816635 6.669188 0.000000 0.000000 0.000000 -3.130434 0.000000 0.000000 0.000000 -0.000000 0.000000 -10.207941 0.000000 0.000000 -0.000000 0.000000 -0.000000 -8.302460 0.000000 0.000002 -0.000000 -0.000000 -0.000001 -3.976400 -0.511800 0.590501 -0.000000 0.000000 -0.000000 -1.574798 0.039400 -0.236200 0.000000 0.000001 0.000000 -1.929092 0.039400 -0.315002 0.000000 0.000001 0.000001 -3.818907 -1.496099 0.590505 -0.000003 0.000001 -0.000003 -1.417300 -0.669300 -0.236199 -0.000006 -0.000002 -0.000002 -1.259806 -0.551204 -0.236205 0.000002 -0.000001 0.000001 -3.897598 0.393700 0.354304 -0.000000 0.000000 0.000003 -1.496103 0.511803 -0.315001 -0.000003 -0.000000 -0.000000 -1.574806 0.511799 -0.354300 -0.000001 0.000000 -0.000001 -3.740100 1.220499 0.118100 0.000001 -0.000003 0.000003 -0.984199 0.944899 -0.236203 -0.000000 -0.000004 0.000003 -0.708698 0.590603 -0.157504 -0.000004 0.000003 0.000003 -1.023599 -1.220502 0.157498 0.000002 0.000002 0.000002 -1.259801 -1.102402 -0.039399 -0.000002 0.000003 0.000003 -1.220500 -0.905499 -0.039396 0.000004 -0.000004 0.000002 5.308128 -1.361059 -1.633272 0.000000 0.000000 -0.000000 -2.041589 -0.000001 -20.007563 -0.000000 0.000000 -0.000000 -0.000000 1.224950 -19.190933 -0.000002 0.000000 0.000000 -5.308128 -1.361059 -1.633272 0.000000 -0.000000 0.000000 2.041589 -0.000001 -20.007563 -0.000000 -0.000000 0.000000 0.000000 1.224950 -19.190933 -0.000002 -0.000000 -0.000000 
0.000000 -0.000000 -7.864030 -82.000014 -0.000000 0.000000 0.000000 -0.000000 3.402643 -23.000034 -0.000000 0.000000 -0.000000 0.680530 8.438564 3.000003 0.000000 0.000000 -0.000000 0.272212 10.207940 1.000001 0.000000 0.000000 0.000000 -0.000000 3.130430 -25.000039 0.000000 -0.000000 3.402647 0.816635 6.669185 0.040024 -2.000000 1.001395 3.266540 0.000000 0.000001 -85.860833 -48.608469 -24.729933 10.071834 -0.000002 0.000000 -108.955075 -12.502909 -105.935319 8.438560 0.000000 -0.000000 -88.437057 -14.548107 83.800458 3.976399 -0.511799 0.590496 -0.370000 -0.000000 -2.480004 1.574803 0.039399 -0.236198 0.099999 -0.000004 0.000001 1.929097 0.039398 -0.315001 0.099999 0.000003 0.000000 3.818895 -1.496098 0.590499 3.600128 -0.338165 23.940448 1.417300 -0.669303 -0.236196 0.200003 0.449996 0.000003 1.259806 -0.551199 -0.236197 0.200002 0.449998 -0.000007 3.897599 0.393699 0.354299 -3.457135 -0.495692 -17.590684 1.496100 0.511802 -0.315001 0.506995 -1.636757 -3.601471 1.574795 0.511800 -0.354297 0.570278 -1.589996 0.010004 3.740196 1.220500 0.118097 -5.900752 -1.207493 -34.208644 0.984198 0.944900 -0.236196 -1.202452 1.543889 -5.091859 0.708702 0.590599 -0.157497 -1.260535 1.549995 0.020009 1.023598 -1.220499 0.157499 0.099996 -0.000006 -0.000003 1.259801 -1.102400 -0.039401 0.000013 0.000028 26.970004 1.220502 -0.905503 -0.039403 -5.344734 -0.692805 12.630944 -3.538753 0.816636 6.669189 -0.040024 2.000000 1.001395 -3.130434 -0.000000 0.000001 85.860846 48.608472 -24.729929 -10.207943 -0.000001 -0.000000 108.952992 12.506156 -105.925627 -8.302461 0.000003 -0.000000 88.437050 14.548110 83.800465 -3.976404 -0.511800 0.590503 -0.369998 -0.000003 2.480002 -1.574800 0.039402 -0.236196 0.099999 0.000002 -0.000001 -1.929090 0.039400 -0.315002 0.099999 -0.000003 0.000003 -3.818905 -1.496100 0.590506 3.600127 0.338163 -23.940443 -1.417303 -0.669302 -0.236202 0.199992 -0.450004 -0.000001 -1.259800 -0.551203 -0.236200 0.200003 -0.450001 0.000001 -3.897602 0.393700 0.354305 -3.457140 0.495689 17.590676 -1.496104 0.511797 -0.314999 0.506993 1.636757 3.601472 -1.574799 0.511798 -0.354298 0.570271 1.589997 -0.010002 -3.740103 1.220498 0.118104 -5.900747 1.207493 34.208647 -0.984194 0.944900 -0.236202 -1.202445 -1.543886 5.091847 -0.708701 0.590602 -0.157500 -1.260547 -1.549998 -0.020009 -1.023603 -1.220502 0.157503 0.100001 0.000007 -0.000003 -1.259803 -1.102402 -0.039402 0.000002 -0.000029 -26.969997 -1.220494 -0.905499 -0.039399 -5.344736 0.692805 -12.630939 5.308128 -1.361059 -1.633274 -29.778385 9.319318 -2.766543 -2.041588 -0.000002 -20.007563 1.000921 -0.329998 -0.160002 -0.000000 1.224953 -19.190937 64.512264 3.465902 8.014742 -5.308128 -1.361059 -1.633274 20.005271 2.999998 0.100137 2.041589 -0.000002 -20.007563 149.239442 -0.369424 3.180059 0.000000 1.224949 -19.190929 64.512264 -3.465901 -8.014741 
0.000000 -0.000000 -7.864030 -82.000014 -0.000000 0.000000 0.000000 -0.000000 3.402643 -21.000035 -0.000000 0.000000 -0.000000 0.680529 8.438562 -0.000000 -0.000102 0.001353 0.000000 0.272214 10.207940 0.999999 0.000000 0.000000 -0.000000 -0.000000 3.130428 -25.000039 0.000000 -0.000000 3.402647 0.816636 6.669189 0.040024 -2.000000 1.001396 3.266541 -0.000000 0.000001 -85.860833 -48.608472 -24.729933 10.071836 -0.000001 -0.000001 -108.955075 -12.502911 -105.935312 8.438563 -0.000004 0.000000 -88.437057 -14.548110 83.800465 3.976399 -0.511799 0.590495 -0.369999 -0.000001 -2.479999 1.574800 0.039401 -0.236197 0.099999 -0.000002 -0.000002 1.929101 0.039401 -0.314999 0.100001 0.000005 -0.000000 3.818900 -1.496098 0.590500 3.600128 -0.338163 23.940448 1.417302 -0.669304 -0.236199 0.200001 0.449996 0.000006 1.259801 -0.551201 -0.236202 0.200000 0.449999 -0.000000 3.897598 0.393701 0.354301 -3.457137 -0.495690 -17.590679 1.496103 0.511801 -0.315001 0.506995 -1.636759 -3.601470 1.574797 0.511800 -0.354300 0.570271 -1.589998 0.010001 3.740200 1.220501 0.118098 -5.900760 -1.207495 -34.208644 0.984197 0.944898 -0.236198 -1.202457 1.543889 -5.091850 0.708700 0.590598 -0.157496 -1.260538 1.549993 0.020002 1.023597 -1.220498 0.157499 0.100001 -0.000001 -0.000001 1.259797 -1.102398 -0.039399 0.000020 0.000027 26.969999 1.220506 -0.905506 -0.039399 -5.344738 -0.692804 12.630946 -3.538753 0.816636 6.669189 -0.040024 2.000000 1.001398 -3.130435 -0.000001 0.000001 85.860846 48.608465 -24.729929 -10.207942 0.000003 0.000002 108.952985 12.506157 -105.925627 -8.302461 0.000005 -0.000001 88.437043 14.548115 83.800465 -3.976403 -0.511801 0.590499 -0.369999 0.000001 2.480001 -1.574799 0.039402 -0.236204 0.100001 -0.000001 0.000002 -1.929097 0.039401 -0.315001 0.100000 -0.000004 0.000001 -3.818906 -1.496099 0.590504 3.600129 0.338161 -23.940445 -1.417301 -0.669300 -0.236198 0.199992 -0.450004 -0.000005 -1.259801 -0.551204 -0.236203 0.200001 -0.450005 0.000002 -3.897601 0.393699 0.354303 -3.457136 0.495691 17.590676 -1.496099 0.511798 -0.314998 0.506997 1.636759 3.601472 -1.574801 0.511798 -0.354302 0.570274 1.589995 -0.010005 -3.740104 1.220497 0.118101 -5.900739 1.207492 34.208644 -0.984201 0.944901 -0.236202 -1.202443 -1.543888 5.091850 -0.708701 0.590602 -0.157502 -1.260543 -1.549999 -0.020010 -1.023599 -1.220502 0.157499 0.100003 0.000007 0.000007 -1.259801 -1.102399 -0.039402 0.000006 -0.000027 -26.970004 -1.220496 -0.905503 -0.039400 -5.344737 0.692804 -12.630934 5.308128 -1.361059 -1.633274 -29.778385 9.319318 -2.766543 -2.041588 -0.000002 -20.007563 1.000921 -0.329998 -0.160002 -0.000000 1.224953 -19.190937 64.512264 3.465902 8.014742 -5.308128 -1.361059 -1.633274 20.005271 2.999998 0.100137 2.041589 -0.000002 -20.007563 149.239442 -0.369424 3.180059 0.000000 1.224949 -19.190929 64.512264 -3.465901 -8.014741 
0.000000 -0.000000 -7.864030 -82.000014 -0.000000 0.000000 0.000000 -0.000000 3.402643 -19.000029 -0.000000 0.000000 -0.000000 0.680529 8.438564 -3.000003 -0.000073 0.001808 -0.000000 0.272211 10.207942 1.000000 0.000000 -0.000000 -0.000000 0.000002 3.130430 -25.000038 0.000000 -0.000000 3.402647 0.816634 6.669189 0.040024 -2.000000 1.001397 3.266541 -0.000002 0.000000 -85.860833 -48.608472 -24.729940 10.071833 0.000000 -0.000002 -108.955075 -12.502911 -105.935319 8.438564 -0.000002 0.000000 -88.437057 -14.548107 83.800465 3.976395 -0.511797 0.590495 -0.369998 -0.000000 -2.479997 1.574802 0.039400 -0.236200 0.100000 -0.000001 -0.000001 1.929093 0.039402 -0.315001 0.100000 0.000003 0.000001 3.818895 -1.496096 0.590499 3.600130 -0.338166 23.940452 1.417297 -0.669301 -0.236200 0.200002 0.449996 -0.000000 1.259803 -0.551200 -0.236195 0.200004 0.450001 -0.000001 3.897597 0.393702 0.354301 -3.457133 -0.495692 -17.590679 1.496103 0.511801 -0.314998 0.506995 -1.636759 -3.601477 1.574795 0.511803 -0.354301 0.570274 -1.589997 0.010005 3.740199 1.220501 0.118100 -5.900755 -1.207492 -34.208644 0.984199 0.944900 -0.236202 -1.202455 1.543888 -5.091852 0.708699 0.590602 -0.157500 -1.260542 1.549991 0.020007 1.023597 -1.220497 0.157500 0.100001 -0.000003 -0.000001 1.259800 -1.102399 -0.039396 0.000018 0.000025 26.969999 1.220499 -0.905501 -0.039400 -5.344731 -0.692808 12.630943 -3.538753 0.816634 6.669188 -0.040024 1.999999 1.001398 -3.130435 0.000001 0.000003 85.860846 48.608472 -24.729926 -10.207940 0.000001 -0.000001 108.952985 12.506153 -105.925627 -8.302456 0.000001 0.000002 88.437043 14.548115 83.800465 -3.976398 -0.511800 0.590499 -0.369998 -0.000003 2.479998 -1.574800 0.039402 -0.236197 0.100001 -0.000005 0.000000 -1.929097 0.039400 -0.315001 0.100000 -0.000001 0.000001 -3.818902 -1.496098 0.590502 3.600129 0.338163 -23.940440 -1.417303 -0.669302 -0.236197 0.199992 -0.449999 -0.000004 -1.259800 -0.551203 -0.236207 0.199999 -0.450002 -0.000001 -3.897600 0.393701 0.354300 -3.457138 0.495689 17.590672 -1.496103 0.511804 -0.315000 0.506999 1.636758 3.601472 -1.574801 0.511799 -0.354301 0.570272 1.589996 -0.010008 -3.740099 1.220498 0.118101 -5.900737 1.207494 34.208644 -0.984200 0.944903 -0.236203 -1.202445 -1.543892 5.091848 -0.708703 0.590603 -0.157496 -1.260539 -1.550002 -0.020015 -1.023596 -1.220501 0.157498 0.100001 0.000007 0.000002 -1.259804 -1.102404 -0.039398 -0.000001 -0.000030 -26.969999 -1.220495 -0.905498 -0.039398 -5.344731 0.692808 -12.630935 5.308128 -1.361059 -1.633274 -29.778385 9.319318 -2.766543 -2.041588 -0.000002 -20.007563 1.000921 -0.329998 -0.160002 -0.000000 1.224953 -19.190937 64.512264 3.465902 8.014742 -5.308128 -1.361059 -1.633274 20.005271 2.999998 0.100137 2.041589 -0.000002 -20.007563 149.239442 -0.369424 3.180059 0.000000 1.224949 -19.190929 64.512264 -3.465901 -8.014741 
